<svg width="40" height="40" viewBox="0 0 40 40" fill="none" xmlns="http://www.w3.org/2000/svg">
<g clip-path="url(#clip0_77_19)">
<path d="M19.9999 0C31.0459 0 39.9999 8.954 39.9999 20V34C39.9999 35.5913 39.3678 37.1174 38.2426 38.2426C37.1174 39.3679 35.5912 40 33.9999 40H20.9999V31.226C20.9999 29.224 21.1219 27.15 22.1719 25.446C22.9237 24.2248 23.9292 23.1796 25.1205 22.3813C26.3117 21.5829 27.6607 21.0501 29.0759 20.819L29.4589 20.757C29.6168 20.703 29.7539 20.601 29.8509 20.4653C29.948 20.3296 30.0002 20.1669 30.0002 20C30.0002 19.8331 29.948 19.6704 29.8509 19.5347C29.7539 19.399 29.6168 19.297 29.4589 19.243L29.0759 19.181C27.0081 18.8432 25.0986 17.8644 23.617 16.3829C22.1355 14.9013 21.1567 12.9918 20.8189 10.924L20.7569 10.541C20.703 10.3831 20.601 10.246 20.4652 10.149C20.3295 10.0519 20.1668 9.99975 19.9999 9.99975C19.8331 9.99975 19.6704 10.0519 19.5346 10.149C19.3989 10.246 19.2969 10.3831 19.2429 10.541L19.1809 10.924C18.9499 12.3393 18.4171 13.6883 17.6187 14.8795C16.8204 16.0707 15.7751 17.0763 14.5539 17.828C12.8499 18.878 10.7759 19 8.77393 19H0.0239258C0.546926 8.419 9.28993 0 19.9999 0Z" fill="#F06225"/>
<path d="M0 21H8.774C10.776 21 12.85 21.122 14.554 22.172C15.886 22.9928 17.0072 24.114 17.828 25.446C18.878 27.15 19 29.224 19 31.226V40H6C4.4087 40 2.88258 39.3679 1.75736 38.2426C0.632141 37.1174 0 35.5913 0 34L0 21ZM40 2C40 2.53043 39.7893 3.03914 39.4142 3.41421C39.0391 3.78929 38.5304 4 38 4C37.4696 4 36.9609 3.78929 36.5858 3.41421C36.2107 3.03914 36 2.53043 36 2C36 1.46957 36.2107 0.960859 36.5858 0.585786C36.9609 0.210714 37.4696 0 38 0C38.5304 0 39.0391 0.210714 39.4142 0.585786C39.7893 0.960859 40 1.46957 40 2Z" fill="#F06225"/>
</g>
<defs>
<clipPath id="clip0_77_19">
<rect width="40" height="40" fill="white"/>
</clipPath>
</defs>
</svg>
